HIERARCHY
ROOT joint_Root
{
	OFFSET 0.0 0.0 0.0
	CHANNELS 6 Xposition Yposition Zposition Zrotation Xrotation Yrotation 
	JOINT Hips
	{
		OFFSET 4.5925 91.4895 -427.239
		CHANNELS 6 Xposition Yposition Zposition Zrotation Xrotation Yrotation 
		JOINT Spine
		{
			OFFSET 15.7357 0.0 0.0
			CHANNELS 6 Xposition Yposition Zposition Zrotation Xrotation Yrotation 
			JOINT Chest
			{
				OFFSET 8.98455 -0.406207 0.0
				CHANNELS 6 Xposition Yposition Zposition Zrotation Xrotation Yrotation 
				JOINT Neck
				{
					OFFSET 16.3773 0.0 0.0
					CHANNELS 6 Xposition Yposition Zposition Zrotation Xrotation Yrotation 
					JOINT Head
					{
						OFFSET 6.45672 0.0 0.0
						CHANNELS 6 Xposition Yposition Zposition Zrotation Xrotation Yrotation 
						End Site
						{
							OFFSET 0.0 0.0 0.0
						}
					}
				}
				JOINT Shoulder_L
				{
					OFFSET 12.9942 -0.242716 4.98039
					CHANNELS 6 Xposition Yposition Zposition Zrotation Xrotation Yrotation 
					JOINT UpperArm_L
					{
						OFFSET 5.34809 0.0 0.0
						CHANNELS 6 Xposition Yposition Zposition Zrotation Xrotation Yrotation 
						JOINT LowerArm_L
						{
							OFFSET 24.3286 1.87007e-05 0.0
							CHANNELS 6 Xposition Yposition Zposition Zrotation Xrotation Yrotation 
							JOINT Hand_L
							{
								OFFSET 22.2916 0.0 0.0
								CHANNELS 6 Xposition Yposition Zposition Zrotation Xrotation Yrotation 
								End Site
								{
									OFFSET 0.0 0.0 0.0
								}
							}
						}
					}
				}
				JOINT Shoulder_R
				{
					OFFSET 12.9945 -0.242716 -4.98039
					CHANNELS 6 Xposition Yposition Zposition Zrotation Xrotation Yrotation 
					JOINT UpperArm_R
					{
						OFFSET -5.34813 0.0 0.0
						CHANNELS 6 Xposition Yposition Zposition Zrotation Xrotation Yrotation 
						JOINT LowerArm_R
						{
							OFFSET -24.3289 0.000322201 0.0
							CHANNELS 6 Xposition Yposition Zposition Zrotation Xrotation Yrotation 
							JOINT Hand_R
							{
								OFFSET -22.2915 -0.000108084 0.0
								CHANNELS 6 Xposition Yposition Zposition Zrotation Xrotation Yrotation 
								End Site
								{
									OFFSET 0.0 0.0 0.0
								}
							}
						}
					}
				}
			}
		}
		JOINT UpperLeg_L
		{
			OFFSET -2.19248 -6.46944 0.0
			CHANNELS 6 Xposition Yposition Zposition Zrotation Xrotation Yrotation 
			JOINT LowerLeg_L
			{
				OFFSET 39.0811 0.0 -1.23785e-05
				CHANNELS 6 Xposition Yposition Zposition Zrotation Xrotation Yrotation 
				JOINT Foot_L
				{
					OFFSET 40.9854 0.0 -1.26872e-05
					CHANNELS 6 Xposition Yposition Zposition Zrotation Xrotation Yrotation 
					JOINT Toes_L
					{
						OFFSET 11.7543 0.0 0.0
						CHANNELS 6 Xposition Yposition Zposition Zrotation Xrotation Yrotation 
						End Site
						{
							OFFSET 0.0 0.0 0.0
						}
					}
				}
			}
		}
		JOINT UpperLeg_R
		{
			OFFSET -2.19251 6.46944 0.0
			CHANNELS 6 Xposition Yposition Zposition Zrotation Xrotation Yrotation 
			JOINT LowerLeg_R
			{
				OFFSET -39.0811 -0.00228153 -0.0401928
				CHANNELS 6 Xposition Yposition Zposition Zrotation Xrotation Yrotation 
				JOINT Foot_R
				{
					OFFSET -40.9854 0.0 0.0
					CHANNELS 6 Xposition Yposition Zposition Zrotation Xrotation Yrotation 
					JOINT Toes_R
					{
						OFFSET -11.7543 0.0 0.0
						CHANNELS 6 Xposition Yposition Zposition Zrotation Xrotation Yrotation 
						End Site
						{
							OFFSET 0.0 0.0 0.0
						}
					}
				}
			}
		}
	}
}
MOTION
Frames:	5
Frame Time:	0.0333333
0.000000 0.000000 0.000000 0.000000 0.000000 -0.000000 -1.851050 91.277000 2.251730 89.581600 0.736750 7.650450 15.735700 0.000005 -0.000001 80.710900 88.496400 -81.422900 8.984550 -0.406207 -0.000000 -4.800390 -0.406933 -1.441980 16.377300 -0.000001 -0.000001 10.212000 -4.364160 1.984220 6.456720 -0.000001 -0.000000 -0.466187 -6.230050 -1.454830 12.994200 -0.242716 4.980390 -83.369800 -11.888700 -60.568500 5.348090 -0.000007 -0.000001 -47.642200 -53.965800 -75.412700 24.328600 0.000019 0.000005 6.096560 3.506490 -60.106400 22.291600 -0.000001 0.000005 28.915600 5.205320 2.604950 12.994500 -0.242716 -4.980390 94.976500 -11.889700 -67.090900 -5.348130 -0.000001 -0.000004 -65.727400 -62.013000 -92.715500 -24.328900 0.000322 -0.000009 -19.152700 -12.700600 -57.746400 -22.291500 -0.000108 -0.000004 30.645600 5.418550 -3.476590 -2.192480 -6.469440 -0.000000 -174.628000 -8.745420 0.560120 39.081100 -0.000007 -0.000012 -0.163620 0.324565 26.753900 40.985400 -0.000006 -0.000013 -0.105813 8.016300 -69.698300 11.754300 -0.000000 0.000003 -0.000036 -0.000420 -16.593900 -2.192510 6.469440 -0.000001 175.761000 20.112100 -177.631000 -39.081100 -0.002282 -0.040193 0.014158 -0.021721 26.540600 -40.985400 0.000008 0.000006 7.222130 11.669400 -71.894600 -11.754300 -0.000006 -0.000006 -0.002936 -0.039881 -18.195000
0.000000 0.000000 0.000000 0.000000 0.000000 -0.000000 -1.874480 91.398600 2.065790 89.527300 0.424560 6.837510 15.735700 0.000005 -0.000001 80.409700 88.730200 -81.065900 8.984550 -0.406207 -0.000000 -5.263580 -0.348066 -1.329440 16.377300 -0.000001 -0.000001 10.069100 -4.200410 1.974500 6.456720 -0.000001 -0.000000 -0.722083 -6.503170 -1.267900 12.994200 -0.242716 4.980390 -81.612000 -14.275200 -59.121900 5.348090 -0.000007 -0.000001 -44.442400 -61.606300 -80.961700 24.328600 0.000019 0.000005 14.579700 4.834970 -72.013300 22.291600 -0.000001 0.000005 36.204800 5.273620 0.919938 12.994500 -0.242716 -4.980390 96.269200 -14.019100 -65.607700 -5.348130 -0.000001 -0.000004 -62.800900 -65.843000 -99.073900 -24.328900 0.000322 -0.000009 -7.409800 -2.980560 -68.294200 -22.291500 -0.000108 -0.000004 38.225400 5.667120 -14.230700 -2.192480 -6.469440 -0.000000 -174.739000 -8.796500 -0.082036 39.081100 -0.000007 -0.000012 -0.157119 0.319705 26.172000 40.985400 -0.000006 -0.000013 -0.239357 7.692820 -69.275600 11.754300 -0.000000 0.000003 -0.000032 -0.000383 -16.592500 -2.192510 6.469440 -0.000001 176.227000 19.938400 -178.489000 -39.081100 -0.002282 -0.040193 0.014635 -0.023144 26.074400 -40.985400 0.000008 0.000006 7.207960 11.757800 -71.370800 -11.754300 -0.000006 -0.000006 -0.003115 -0.041898 -18.277100
0.000000 0.000000 0.000000 0.000000 0.000000 -0.000000 -1.802580 91.600900 1.884770 89.524800 -0.043750 5.387360 15.735700 0.000005 -0.000001 77.704400 89.137200 -78.384300 8.984550 -0.406207 -0.000000 -6.081450 -0.284802 -1.376590 16.377300 -0.000001 -0.000001 9.973550 -4.056660 2.139060 6.456720 -0.000001 -0.000000 -1.529920 -6.506640 -0.806256 12.994200 -0.242716 4.980390 -80.329200 -15.511400 -57.494400 5.348090 -0.000007 -0.000001 -45.644000 -66.852700 -86.790300 24.328600 0.000019 0.000005 21.639600 5.532110 -76.342900 22.291600 -0.000001 0.000005 45.568500 5.311120 -0.264041 12.994500 -0.242716 -4.980390 97.532500 -15.150200 -63.162600 -5.348130 -0.000001 -0.000004 -55.998300 -68.143300 -97.674400 -24.328900 0.000322 -0.000009 -0.688143 -0.227292 -71.721600 -22.291500 -0.000108 -0.000004 54.605500 5.680590 -22.881200 -2.192480 -6.469440 -0.000000 -175.149000 -8.646890 -1.097390 39.081100 -0.000007 -0.000012 -0.145611 0.311486 25.054900 40.985400 -0.000006 -0.000013 -0.423029 6.922490 -68.599800 11.754300 -0.000000 0.000003 -0.000025 -0.000304 -16.589500 -2.192510 6.469440 -0.000001 176.813000 19.682500 179.986000 -39.081100 -0.002282 -0.040193 0.014498 -0.023518 25.438600 -40.985400 0.000008 0.000006 7.041390 11.983600 -70.413100 -11.754300 -0.000006 -0.000006 -0.003225 -0.043122 -18.326900
0.000000 0.000000 0.000000 0.000000 0.000000 -0.000000 -1.763370 91.665000 1.884660 89.466600 -0.684324 5.067370 15.735700 0.000005 -0.000001 58.700900 89.255900 -59.363600 8.984550 -0.406207 -0.000000 -6.498320 -0.689344 -1.366480 16.377300 -0.000001 -0.000001 10.284000 -4.187890 2.346580 6.456720 -0.000001 -0.000000 -1.647430 -6.086760 -0.782530 12.994200 -0.242716 4.980390 -80.457400 -14.788900 -56.631600 5.348090 -0.000007 -0.000001 -42.403900 -67.818300 -83.822100 24.328600 0.000019 0.000005 17.706300 6.314980 -70.966300 22.291600 -0.000001 0.000005 40.219200 5.222420 2.293990 12.994500 -0.242716 -4.980390 97.336800 -14.297200 -62.463500 -5.348130 -0.000001 -0.000004 -50.638200 -65.596800 -92.574800 -24.328900 0.000322 -0.000009 -5.127810 -2.379290 -65.253000 -22.291500 -0.000108 -0.000004 49.144300 5.694620 -20.182100 -2.192480 -6.469440 -0.000000 -175.110000 -9.232080 -1.105670 39.081100 -0.000007 -0.000012 -0.142911 0.311580 24.639400 40.985400 -0.000006 -0.000013 -0.433768 6.856810 -68.449900 11.754300 -0.000000 0.000003 -0.000023 -0.000289 -16.588900 -2.192510 6.469440 -0.000001 176.912000 19.642300 179.735000 -39.081100 -0.002282 -0.040193 0.013889 -0.022542 25.136800 -40.985400 0.000008 0.000006 7.124070 12.582800 -70.179700 -11.754300 -0.000006 -0.000006 -0.003481 -0.045929 -18.441200
0.000000 0.000000 0.000000 0.000000 0.000000 -0.000000 -1.740140 91.571800 1.877980 89.457200 -1.463070 5.759200 15.735700 0.000005 -0.000001 55.112700 88.914000 -55.823000 8.984550 -0.406207 -0.000000 -5.991930 -1.155180 -1.482940 16.377300 -0.000001 -0.000001 9.770840 -3.991090 2.336310 6.456720 -0.000001 -0.000000 -1.199660 -5.153190 -0.140159 12.994200 -0.242716 4.980390 -81.294200 -13.426900 -56.598100 5.348090 -0.000007 -0.000001 -36.723500 -65.681700 -73.840200 24.328600 0.000019 0.000005 8.747250 5.391760 -58.483500 22.291600 -0.000001 0.000005 28.845100 5.008750 7.273140 12.994500 -0.242716 -4.980390 96.062800 -12.694100 -64.205700 -5.348130 -0.000001 -0.000004 -46.155000 -62.157000 -83.474200 -24.328900 0.000322 -0.000009 -10.228200 -7.931470 -52.652400 -22.291500 -0.000108 -0.000004 34.515200 5.602640 -10.699100 -2.192480 -6.469440 -0.000000 -174.854000 -10.206400 -0.510260 39.081100 -0.000007 -0.000012 -0.147215 0.313228 25.173300 40.985400 -0.000006 -0.000013 -0.338016 7.059930 -68.801300 11.754300 -0.000000 0.000003 -0.000022 -0.000269 -16.588100 -2.192510 6.469440 -0.000001 176.631000 19.304800 -179.658000 -39.081100 -0.002282 -0.040193 0.012022 -0.018371 25.368100 -40.985400 0.000008 0.000006 7.224450 13.041200 -70.691800 -11.754300 -0.000006 -0.000006 -0.003536 -0.046522 -18.465300
